<?xml version="1.0" encoding="UTF-8" standalone="no"?>
<svg
   xmlns:dc="http://purl.org/dc/elements/1.1/"
   xmlns:cc="http://creativecommons.org/ns#"
   xmlns:rdf="http://www.w3.org/1999/02/22-rdf-syntax-ns#"
   xmlns:svg="http://www.w3.org/2000/svg"
   xmlns="http://www.w3.org/2000/svg"
   xmlns:sodipodi="http://sodipodi.sourceforge.net/DTD/sodipodi-0.dtd"
   xmlns:inkscape="http://www.inkscape.org/namespaces/inkscape"
   version="1.1"
   id="svg2"
   xml:space="preserve"
   width="41.950539"
   height="35.849236"
   viewBox="0 0 209.7527 179.24618"
   sodipodi:docname="logo_header.svg"
   inkscape:version="1.0.1 (3bc2e813f5, 2020-09-07)"><title
     id="title38">mxkpp logo</title><metadata
     id="metadata8"><rdf:RDF><cc:Work
         rdf:about=""><dc:format>image/svg+xml</dc:format><dc:type
           rdf:resource="http://purl.org/dc/dcmitype/StillImage" /><dc:title>mxkpp logo</dc:title><cc:license
           rdf:resource="" /><dc:date>2021</dc:date><dc:rights><cc:Agent><dc:title>© Max Kipp</dc:title></cc:Agent></dc:rights><dc:publisher><cc:Agent><dc:title>Max Kipp</dc:title></cc:Agent></dc:publisher></cc:Work></rdf:RDF></metadata><defs
     id="defs6" /><sodipodi:namedview
     pagecolor="#ffffff"
     bordercolor="#666666"
     borderopacity="1"
     objecttolerance="10"
     gridtolerance="10"
     guidetolerance="10"
     inkscape:pageopacity="0"
     inkscape:pageshadow="2"
     inkscape:window-width="2244"
     inkscape:window-height="1111"
     id="namedview4"
     showgrid="false"
     inkscape:zoom="5.6568543"
     inkscape:cx="18.618762"
     inkscape:cy="11.146044"
     inkscape:window-x="843"
     inkscape:window-y="193"
     inkscape:window-maximized="0"
     inkscape:current-layer="text176"
     fit-margin-top="0"
     fit-margin-left="5"
     fit-margin-right="5"
     fit-margin-bottom="0"
     inkscape:document-rotation="0"
     scale-x="5" /><g
     id="g10"
     inkscape:groupmode="layer"
     inkscape:label="ink_ext_XXXXXX"
     transform="matrix(1.3333333,0,0,-1.3333333,-130.58402,707.58)"><g
       id="g12"
       transform="scale(0.1)"><path
         d="m 1811.0143,4575.486 122.28,123.5 -122.28,123.49 h -244.55 l -122.27,-123.49 122.27,-123.5 h 244.55"
         style="fill:#41b8ab;fill-opacity:1;fill-rule:nonzero;stroke:none"
         id="path36" /><path
         d="m 1611.9043,4538.796 -77.23,-96.94 82.6,-96.93 h 138.36 l 87.98,96.93 -77.23,96.94 h -154.48"
         style="fill:#41b8ab;fill-opacity:1;fill-rule:nonzero;stroke:none"
         id="path38" /><path
         d="m 1785.4643,4864.506 95.98,96.93 -95.98,96.94 h -191.95 l -95.97,-96.94 95.97,-96.93 h 191.95"
         style="fill:#41b8ab;fill-opacity:1;fill-rule:nonzero;stroke:none"
         id="path40" /><path
         d="m 1762.2943,5094.886 61.78,77.38 c -46.39,17.98 -76.72,27.93 -129.4,27.93 -54,0 -85.54,-10.47 -132.88,-29.31 l 52.33,-76 h 148.17"
         style="fill:#41b8ab;fill-opacity:1;fill-rule:nonzero;stroke:none"
         id="path42" /><path
         d="m 1713.2943,4100.306 c 32.25,23.65 56.51,43.09 83.81,67.84 l -48.5,135.18 h -113.66 l -36.27,-132.57 c 28.8,-25.13 49.42,-45.31 83.6,-70.16 0,0 13.99,-12.97 31.02,-0.29"
         style="fill:#41b8ab;fill-opacity:1;fill-rule:nonzero;stroke:none"
         id="path44" /><path
         d="m 1534.6743,4859.606 -95.97,96.93 -101.92,40 c -24.39,-53.27 -58.1,-152.52 -58.1,-215.02 0,0 -1.62,-19.39 1.37,-53.16 h 121.05 l 133.57,131.25"
         style="fill:#41b8ab;fill-opacity:1;fill-rule:nonzero;stroke:none"
         id="path46" /><path
         d="m 2093.9343,4728.356 h -122.12 l -128.2,131.25 95.97,96.93 112.98,30 c 0,0 67.33,-124.09 41.37,-258.18"
         style="fill:#41b8ab;fill-opacity:1;fill-rule:nonzero;stroke:none"
         id="path48" /><path
         d="m 1545.4143,4536.096 -144.31,145.94 h -114.98 c 9.99,-58.3 42.19,-148.09 90.82,-238.18 l 104.72,10 63.75,82.24"
         style="fill:#41b8ab;fill-opacity:1;fill-rule:nonzero;stroke:none"
         id="path50" /><path
         d="m 1966.4443,4682.036 -144.32,-145.94 63.75,-82.24 111.05,-20 c 43.15,84.96 86.43,189.93 99.01,248.18 h -7.37 -122.12"
         style="fill:#41b8ab;fill-opacity:1;fill-rule:nonzero;stroke:none"
         id="path52" /><path
         d="m 1561.9943,5088.636 -51.35,73.22 c -69.68,-37.05 -107.59,-63.44 -146.78,-132.07 l 99.27,-40 98.86,98.85"
         style="fill:#41b8ab;fill-opacity:1;fill-rule:nonzero;stroke:none"
         id="path54" /><path
         d="m 1504.6443,4417.196 -107.05,-14.2 c 26.19,-30.92 46.6,-99.67 169.32,-203.53 l 29.91,105.32 -92.18,112.41"
         style="fill:#41b8ab;fill-opacity:1;fill-rule:nonzero;stroke:none"
         id="path56" /><path
         d="m 1889.7643,4417.196 97.06,-24.2 c -26.2,-30.92 -36.61,-89.67 -159.33,-193.53 l -39.9,105.32 102.17,112.41"
         style="fill:#41b8ab;fill-opacity:1;fill-rule:nonzero;stroke:none"
         id="path58" /><path
         d="m 1923.0843,4989.786 102.41,40 c -39.58,69.31 -78.26,86.11 -148.87,123.15 l -52.4,-64.3 98.86,-98.85"
         style="fill:#41b8ab;fill-opacity:1;fill-rule:nonzero;stroke:none"
         id="path60" /><path
         d="m 1847.7643,5206.636 44.41,60.35 c -57.82,21.91 -140.56,34.05 -206.22,34.05 -67.31,0 -121.56,-12.76 -180.57,-35.73 l 41.92,-53.35 c 44.87,15.02 102.79,23.4 152.65,23.4 44.41,0 107.28,-16.66 147.81,-28.72"
         style="fill:#41b8ab;fill-opacity:1;fill-rule:nonzero;stroke:none"
         id="path62" /><path
         d="m 1712.5843,4053.146 c 19.97,15.24 59.4,45.49 96.62,76.36 l 24.43,-66.59 c -34.03,-30.16 -64.27,-63.86 -104.48,-92.7 -31.27,-17.56 -58.66,0.36 -58.66,0.36 -42.61,30.3 -68.31,44.9 -104.21,75.53 l 20.96,74.91 c 29.64,-23.93 61.75,-46.92 96.61,-68.58 0,0 14.31,-10.3 28.73,0.71"
         style="fill:#41b8ab;fill-opacity:1;fill-rule:nonzero;stroke:none"
         id="path64" /><path
         d="m 1293.1543,5004.006 -68.23,20 c -30.42,-64.94 -57.498,-157.17 -57.498,-233.36 0,0 -2.019,-23.65 1.707,-64.8 h 75.211 c -6.97,44.92 -0.93,96.63 -0.93,96.63 15.38,113.38 24.87,126.61 49.74,181.53"
         style="fill:#41b8ab;fill-opacity:1;fill-rule:nonzero;stroke:none"
         id="path66" /><path
         d="m 2086.8743,5004.006 68.24,20 c 30.41,-64.94 57.5,-157.17 57.5,-233.36 0,0 2.01,-23.65 -1.71,-64.8 h -75.22 c 6.98,44.92 5.56,112.97 5.56,112.97 -15.38,113.38 -29.49,110.27 -54.37,165.19"
         style="fill:#41b8ab;fill-opacity:1;fill-rule:nonzero;stroke:none"
         id="path68" /><path
         d="m 1176.7033,4679.376 c 12.446,-71.07 40.121,-148.34 100.741,-258.15 l 62.42,10 c -57.94,103.64 -78.69,173.37 -94.96,248.15 h -68.201"
         style="fill:#41b8ab;fill-opacity:1;fill-rule:nonzero;stroke:none"
         id="path70" /><path
         d="m 2209.8643,4679.376 c -12.44,-71.07 -40.12,-148.34 -100.74,-258.15 l -62.42,10 c 57.94,103.64 78.69,173.37 94.96,248.15 h 68.2"
         style="fill:#41b8ab;fill-opacity:1;fill-rule:nonzero;stroke:none"
         id="path72" /><path
         d="m 1494.9643,5190.836 -40.87,51.27 c -86.86,-45.18 -149.04,-93.91 -197.89,-177.58 l 63.29,-20 c 44.64,61.45 104.99,112.53 175.47,146.31"
         style="fill:#41b8ab;fill-opacity:1;fill-rule:nonzero;stroke:none"
         id="path74" /><path
         d="m 1526.6943,4081.106 26.61,68.67 c -124.64,113.22 -165.91,213.08 -190.05,240.59 l -59.23,-9.48 c 0,0 74.91,-145.15 222.67,-299.78"
         style="fill:#41b8ab;fill-opacity:1;fill-rule:nonzero;stroke:none"
         id="path76" /><path
         d="m 2060.2043,5044.526 65.51,20 c -49.34,84.5 -92.15,119.74 -180.5,178.9 l -48.5,-58.89 c 73.9,-33.68 117.16,-76.22 163.49,-140.01"
         style="fill:#41b8ab;fill-opacity:1;fill-rule:nonzero;stroke:none"
         id="path78" /><path
         d="m 1868.1543,4094.736 -24.54,65.87 c 124.64,113.22 156.69,192.25 180.83,219.76 l 59.23,-9.48 c 0,0 -67.76,-121.52 -215.52,-276.15"
         style="fill:#41b8ab;fill-opacity:1;fill-rule:nonzero;stroke:none"
         id="path80" /><g
         aria-label="TM"
         transform="scale(0.96059375,-1.0410228)"
         id="text176"
         style="font-style:normal;font-weight:normal;font-size:158.122px;line-height:1.25;font-family:sans-serif;fill:#41b8ab;fill-opacity:1;stroke:none;stroke-width:3.953"><path
           d="m 2212.2003,-5097.7271 h 106.2382 v 22.4675 h -38.2179 v 92.804 h -29.7251 v -92.804 h -38.2952 z"
           style="font-weight:bold;fill:#41b8ab;fill-opacity:1;stroke-width:3.953"
           id="path33" /><path
           d="m 2333.8029,-5097.7271 h 37.8319 l 26.2508,61.6892 26.4051,-61.6892 h 37.7547 v 115.2715 h -28.1037 v -84.3111 l -26.5596,62.1524 h -18.8387 l -26.5596,-62.1524 v 84.3111 h -28.1809 z"
           style="font-weight:bold;fill:#41b8ab;fill-opacity:1;stroke-width:3.953"
           id="path35" /></g></g></g></svg>
